<?xml version="1.0" encoding="utf-8"?>
<!-- Generator: Adobe Illustrator 16.0.3, SVG Export Plug-In . SVG Version: 6.00 Build 0)  -->
<!DOCTYPE svg PUBLIC "-//W3C//DTD SVG 1.1//EN" "http://www.w3.org/Graphics/SVG/1.1/DTD/svg11.dtd">
<svg version="1.1" id="Capa_1" xmlns="http://www.w3.org/2000/svg" xmlns:xlink="http://www.w3.org/1999/xlink" x="0px" y="0px"
	 width="230px" height="230px" viewBox="0 0 230 230" enable-background="new 0 0 230 230" xml:space="preserve">
<path fill="none" stroke="#0E0F34" stroke-width="6" stroke-miterlimit="10" d="M225,188.303C225,206.49,210.179,225,192.052,225
	h-153.2C20.727,225,5,206.49,5,188.303V34.595C5,16.409,20.727,5,38.852,5h153.2C210.179,5,225,16.409,225,34.595V188.303z"/>
<g>
	<path fill="none" stroke="#F9B233" stroke-width="6" stroke-miterlimit="10" d="M122.861,193.311c0,0,0.031-40.827,13.031-75.326
		l0.317-0.471c0.813-1.109,2.881-2.514,5.318-2.514c1.293,0,3.098,1.301,3.771,3.125c0.62,1.682-0.356,4.289-1.406,4.855
		c-2.624,1.414-5.531-1.346-2.313-4.98"/>
	<path fill="none" stroke="#F9B233" stroke-width="6" stroke-miterlimit="10" d="M105.492,193.311
		c0-0.001-0.031-40.828-13.031-75.326l-0.317-0.471c-0.813-1.109-2.881-2.514-5.318-2.514c-1.293,0-3.098,1.301-3.771,3.125
		c-0.62,1.682,0.356,4.289,1.406,4.855c2.624,1.414,5.531-1.346,2.313-4.98"/>
	<path fill="none" stroke="#0E0F34" stroke-width="6" stroke-miterlimit="10" d="M130,202.942c-0.597,0.16-7.083,0.058-7.083,0.058
		h-16.5l-9.608,0.031"/>
	<path fill="none" stroke="#0E0F34" stroke-width="6" stroke-miterlimit="10" d="M130,205.375c0,3.313-1.687,5.625-5,5.625h-23
		c-3.313,0-5-2.499-5-5.813l-0.223-2.503c-2.379-1.377-4.712-4.374-4.712-7.325l-0.003-2.322c0.504,0.123,1.031-0.037,1.573-0.037
		h40.859c0.912,0,0.505,0.314,1.505-0.021v2.521c0,3.726-2.789,6.592-6,7.454V205.375z"/>
	<path fill="none" stroke="#0E0F34" stroke-width="6" stroke-miterlimit="10" d="M137.065,192.979c2.352-1.001,4-3.333,4-6.05
		L145.078,145l0,0c11.769-9.147,19.341-23.439,19.341-39.5c0-27.614-22.385-50-50-50c-27.613,0-50,22.386-50,50
		c0,16.059,7.571,30.35,19.339,39.497l0,0l3.308,41.932c0,3.087,2.128,5.677,4.997,6.382"/>
	<path fill="#F9B233" stroke="#F9B233" stroke-miterlimit="10" d="M59.55,42.308c-0.976-0.977-2.717-0.818-3.889,0.354l0,0
		c-1.172,1.172-1.33,2.913-0.354,3.89l14.142,14.142c0.977,0.976,2.718,0.818,3.89-0.354l0,0c1.172-1.172,1.33-2.913,0.354-3.89
		L59.55,42.308z"/>
	<path fill="#F9B233" stroke="#F9B233" stroke-miterlimit="10" d="M170.45,42.308c0.976-0.977,2.717-0.818,3.889,0.354l0,0
		c1.172,1.172,1.33,2.913,0.354,3.89l-14.142,14.142c-0.977,0.976-2.718,0.818-3.89-0.354l0,0c-1.172-1.172-1.33-2.913-0.354-3.89
		L170.45,42.308z"/>
	<path fill="#F9B233" stroke="#F9B233" stroke-miterlimit="10" d="M116.5,41.5c0,1.381-1.343,2.5-3,2.5l0,0c-1.657,0-3-1.119-3-2.5
		v-20c0-1.381,1.343-2.5,3-2.5l0,0c1.657,0,3,1.119,3,2.5V41.5z"/>
</g>
</svg>
